<?xml version="1.0" encoding="UTF-8"?>
<svg xmlns="http://www.w3.org/2000/svg" version="1.1" viewBox="0 0 360 144">
  <defs>
    <style>
      .cls-1 {
        isolation: isolate;
      }

      .cls-2 {
        fill: #00aeef;
      }

      .cls-3 {
        mix-blend-mode: multiply;
      }
    </style>
  </defs>
  <!-- Generator: Adobe Illustrator 28.7.1, SVG Export Plug-In . SVG Version: 1.2.0 Build 142)  -->
  <g>
    <g id="Layer_1">
      <g id="Layer_1-2" data-name="Layer_1">
        <g class="cls-1">
          <g id="Layer_1-2">
            <g>
              <g class="cls-3">
                <path class="cls-2" d="M28.66,101.8l-.14.07c-.34-.07-.68-.61-1.09-.82-.82-.14-3.15-2.13-3.22-2.94-.2-.27-.48-.48-.48-.82,0-1.23.27-2.54.48-3.76,1.36-2.2,1.23-6.57,1.51-9.04.41-3.49,1.7-6.84,2.2-10.33.48-3.22.89-8.29,1.72-11.29.61-2.06.75-4.17,1.02-6.3.95-6.5,1.09-13.75,3.01-20.05-1.63-.07-3.35-.07-5-.07h-3.83c-.61.34-.82.27-1.29.2-.82.27-1.7.41-2.54.41-.61,0-3.01-.14-3.01-1.09,0-1.86,14.03-2.2,16.36-2.2.07-.82-.61-2.26,1.43-2.26,1.79,0,4.17,1.23,5.62,2.26,2.33-.07,4.72-.07,7.05.14,3.9.41,7.86.07,11.78.48.54.07,1.92.27,1.92,1.02,0,.54-.41.27-.68.54-1.51,1.5-2.67,1.79-4.8,1.79-3.97,0-7.93-.82-11.92-.82,0,1.09-.2,1.99-.68,3.01.14,1.09.34,3.15.14,4.24.41,3.76-1.29,6.77-1.86,9.31l.07.34c.34.34.34,2.13.34,2.54,0,.89-.48,1.57-.95,2.26-.41,3.01-1.43,7.32-1.43,10.26v1.79c-.41,2.6-.89,6.57-1.36,8.9,0,.07-.14.89-.2.95-.27,1.02-1.23,2.6-1.23,3.56l-.07.34c-.34.54-2.47,5.48-2.47,5.62.14.07.34.2.34.41,0,.14-.14.2,0,.27.07,0,.14-.07.2-.07-.34.54-.61,1.02-.89,1.57-.54.95-1.72,1.43-2.13,2.4-.2.14-.48.68-.61.89l-.14.07c-.14.27-.14.54-.41.68.07,1.29-.48,1.43-.48,2.2l.07.68c0,.14-.14.34-.2.48-.41.48-.68,2.54-1.09,2.54-.27,0-.68-.34-1.02-.34l-.05-.02h.01Z"/>
              </g>
              <g class="cls-3">
                <path class="cls-2" d="M146.68,101.01c-6.11,11.08-26.83,11.95-42.69-21.86-2.62,11.27-5.21,20.85-11.18,26.98-3.56,4.12-8.87,7.57-17.04,7.74-16.8.26-16.9-28.85,4.75-25.31,1.46.29-2.47,1.19-2.08,3.22,0,0,.9,4.85,4.78,3.74,6.14-1.96,15.08-35.1,24.02-53.5-1.11.12-1.84.27-1.84.27-12.78,2.14-14.93,11.83-14.57,17.36.36,5.89,5,4.05,5,4.05-2.66,8.32-18.37,13.38-23.51-.26-4.75-12.82,15.22-29.58,36.14-29.58,1.21.07,2.33.03,3.4.14,1.84-2.38,3.68-3.86,5.43-3.9,6.14-.14,3.8,5.24,3.8,5.24,0,0-.83-.31-1.63-.05,11.46,3.15,14.33,10.21,15.46,16.34,1.48,8.02-2.57,15.81-2.57,15.81-5.84,10.38-15.78,11.18-22.3,10.28,6.08,6.62,16.65,18.18,24.94,16.07,9.7-2.42,6.86-7.18,6.86-7.18,0,0,10.37,4.24,4.82,14.35l.02.03v.02ZM105.27,73.39l.24-.19c5.55,1.55,19.95-6.38,17.19-20.63-1.09-5.72-4.26-8.51-7.69-9.69-4.87,10.38-7.51,20.95-9.74,30.52v-.02h0Z"/>
              </g>
              <g class="cls-3">
                <path class="cls-2" d="M185.2,42.24h13.52v5.82h-3.29v24.41c0,4.82-.22,8.95-.66,12.39s-1.28,6.25-2.54,8.41-2.98,3.74-5.16,4.75c-2.2,1-5.04,1.5-8.54,1.5s-6.33-.49-8.49-1.5-3.83-2.59-5.02-4.75-1.99-4.95-2.4-8.41c-.41-3.44-.61-7.57-.61-12.39v-24.41h-3.2v-5.82h13.33v5.82h-3.01v27.88c0,6.13.7,10.76,2.11,13.86s3.9,4.65,7.46,4.65c1.87,0,3.42-.46,4.65-1.36s2.2-2.18,2.91-3.8c.71-1.63,1.21-3.57,1.45-5.82.26-2.25.37-4.75.37-7.51v-27.88h-2.91v-5.82l.05-.02h-.02Z"/>
              </g>
              <g class="cls-3">
                <path class="cls-2" d="M300.46,31.84c2.11,0,4.05,1.26,5.84,3.78s2.67,4.78,2.67,6.81c0,.73-.17,1.26-.49,1.58-6.57,7.86-13.72,19.81-21.46,35.83-7.74,16.02-11.75,26.01-11.98,29.99,0,.82-.44,1.21-1.34,1.21-1.62,0-3.42-.99-5.41-2.98s-2.98-4.27-2.98-6.88c0-4.05,2.37-11.25,7.12-21.6,4.75-10.33,9.87-19.76,15.39-28.29-19.63,20.19-34.3,39.01-44.04,56.44-.09.73-.65,1.09-1.7,1.09-1.62,0-3.39-.85-5.29-2.55s-2.86-3.61-2.86-5.72c0-3.81,1.6-10.94,4.8-21.41s6.18-19.22,8.94-26.28c-16.7,18.57-29.16,37.52-37.35,56.8,0,.82-.32,1.21-.97,1.21-.97,0-1.94-.75-2.93-2.25-.97-1.5-1.46-3.54-1.46-6.14,0-3.64,3.29-11.06,9.86-22.26,6.57-11.2,14.01-21.79,22.32-31.81,8.31-10.01,14.5-15.03,18.55-15.03,2.2,0,4.39.87,6.64,2.62,2.23,1.74,3.06,3.3,2.5,4.68-6.49,16.63-10.94,29.96-13.38,40.02,12.82-15.81,23.2-27.92,31.15-36.31,7.95-8.39,13.91-12.6,17.89-12.6v.05h-.03Z"/>
              </g>
              <g class="cls-3">
                <path class="cls-2" d="M318.72,78.39c-4.8-7.97-5.19-24.87,1.84-31.56,2.3-2.18,4.44-3.37,7.81-3.35,9.14.02,13.58,7.17,13.06,13.65-.61,7.35-8.46,9.87-14.83,9.86.07,3.44.37,5.38,1.53,5.41.48,0,1.67.03,1.97.03,1.24,0,1.21-.17,1.41-1.34.09-.51.39-.94.82-1.21.32-.2.7-.32,1.09-.34,1.57,0,5.43-.07,5.43-.07,1.12,0,2.01.9,1.96,1.99v.36c-.31,2.47-1.19,6.18-3.95,8.99-1.65,1.69-4.51,3.2-8.72,3.34-4.05.14-7.32-2.23-9.43-5.75h.01ZM339.37,92.86c-1.72.22-14.72,1.31-19.06,1.36-1.5.02-2.79-1.86-3.03-3.34v-.14c-.29-1.63.78-3.98,2.4-4.29,1.58-.29,13.46-1.82,17.77-1.62,1.87.09,3.59,0,4.46,3.47.44,1.75-.75,4.32-2.54,4.54h0v.02ZM326.43,60.55h.12c3.57,0,6.08-1.04,6.72-2.43,1.17-2.54-.32-5.4-4.03-5.11-2.03.15-2.88,4.1-2.81,7.54h0Z"/>
              </g>
            </g>
          </g>
        </g>
      </g>
    </g>
  </g>
</svg>