<?xml version="1.0" encoding="UTF-8"?>
<svg xmlns="http://www.w3.org/2000/svg" version="1.1" viewBox="0 0 360 144">
  <defs>
    <style>
      .cls-1 {
        isolation: isolate;
      }

      .cls-2 {
        fill: #00aeef;
      }
    </style>
  </defs>
  <!-- Generator: Adobe Illustrator 28.7.1, SVG Export Plug-In . SVG Version: 1.2.0 Build 142)  -->
  <g>
    <g id="Layer_1">
      <g id="Layer_1-2" data-name="Layer_1">
        <g class="cls-1">
          <g id="Layer_1-2">
            <g id="_x32_9OFfE">
              <g>
                <path class="cls-2" d="M157.66,18.39c.3-.37.58-.73.85-1.1.18-.27.37-.52.53-.8.03-.05.07-.1.1-.17,0-.03.15-.27.2-.35.28-.55.53-1.13.73-1.71.02-.07.03-.1.05-.13,0-.1.02-.22.03-.27.02-.12.03-.23.05-.37v-.18c0-.1-.03-.2-.05-.3,0-.02-.02-.05-.03-.07h0c-.05-.07-.12-.15-.17-.22h0s-.08-.05-.12-.08c.03.03,0,.03-.13-.08-1.03.13-2.06.42-3.11.95-3.79,1.91-8.42,2.15-12.59,3.38-3.56,1.05-6.95,2.61-10.5,3.71-8.58,2.68-17.32,4.94-25.8,7.9-8.98,3.13-17.75,6.87-26.63,10.33-1.11.43-2.28.73-3.39,1.18-4.97,2.03-9.86,4.21-14.89,6.09-4.66,1.75-9.42,3.16-14.12,4.74-6.57,2.2-13.12,4.47-19.73,6.6-3.86,1.25-8.58.6-10.85,5.19l-.1.82c.77,1.01,1.46,2.83,2.31,2.91,2.41.23,4.96.02,7.34-.53,3.11-.73,6.12-1.85,9.12-2.99,3.94-1.51,7.82-3.24,11.74-4.79,8.05-3.19,16.12-6.35,24.2-9.48,3.94-1.53,7.9-3.04,11.91-4.37,1.56-.52,1.33.3,1.33.32-.42,1.85-.73,3.76-1.38,5.52-1.5,4.03-3.26,7.95-4.74,11.98-1.86,5.06-3.51,10.18-5.36,15.24-1.25,3.41-2.79,6.69-3.99,10.11-1.4,3.98-2.56,8.05-3.84,12.06-1.46,4.57-3.01,9.12-4.42,13.69-1.15,3.68-2.16,7.39-3.24,11.08-.85,2.86-2.25,5.87,1.95,7.4.32.12.91.25,1.01.12.93-1.3,2.11-2.55,2.61-4.01,1.6-4.59,2.79-9.35,4.44-13.92,2.31-6.37,4.92-12.64,7.35-18.96,2.18-5.69,4.24-11.41,6.45-17.08,2.26-5.79,4.72-11.48,6.94-17.27,1.95-5.07,3.66-10.23,5.49-15.34.57-1.58.77-4.09,1.85-4.57,4.18-1.9,8.67-3.09,13.01-4.64,2.86-1.01,5.62-2.26,8.48-3.28,2.2-.78,4.49-1.23,6.67-2.05,3.31-1.21,6.5-2.71,9.81-3.89,3.23-1.16,6.54-2.13,9.83-3.11,2.66-.8,5.41-1.35,8.03-2.25,1.43-.48,2.74-1.4,4.04-2.23.28-.18.52-.42.77-.67l-.05-.05h0Z"/>
                <path class="cls-2" d="M273.48,90.55c-.95,3.58-1.85,7.17-2.86,10.73-.5,1.73-1.5,2.81-2.25,4.39-.45.96-.73,2.03-1.83,2.45-.95.37-2.23,0-3.06-.53-1.28-.83-1.08-1.71-.82-3.11.72-3.71,1.81-7.32,2.88-10.95,2.11-7.22,4.62-14.31,7.07-21.43,1.23-3.61,2.43-7.24,3.61-10.86.58-1.83,1.18-3.64,1.76-5.47.53-1.7,1.4-3.49,1.43-5.26-3.93,2.16-7.47,5.46-11.11,8.07-3.61,2.6-7.3,5.12-10.71,7.97-1.58,1.33-3.13,2.71-4.79,3.94-1.31.98-2.36,1.95-4.06,1.65-3.79-.65-3.49-3.51-4.01-6.57.33-2.56.68-5.12.96-7.69.05-.5.37-1.86-.38-2.13-1.2-.45-2.68,1.98-3.16,2.63-3.79,5.02-7.5,10.1-11.39,15.02-1.76,2.23-3.86,4.03-5.72,6.15-.9,1.01-1.73,2.1-2.6,3.14-.86,1.06-2.1,1.91-2.89,2.98-.63.85-.73,1.96-1.36,2.81-.65.85-1.68,1.51-2.51,2.2-2.33,1.9-4.79,3.74-7.65,4.72-1.01.35-5.19,2.21-5.87.65-.7-1.65,4.42-4.66,5.41-5.44,4.57-3.63,8.2-7.87,11.71-12.51,7.05-9.33,15.15-17.9,21.46-27.76,3.71-5.79,6.99-11.84,10.35-17.83,1.61-2.86,3.08-5.81,4.66-8.68,1.58-2.86,3.64-3.48,6.35-4.92-1.81,7.05-3.28,14.22-5.02,21.31-.91,3.66-1.81,7.34-2.76,11-.9,3.51-1.86,6.77-1.8,10.4,1.11-.5,1.95-.75,2.88-1.58,1.13-1,2.2-2.08,3.29-3.11,2.2-2.08,4.37-4.18,6.55-6.25,4.23-4.03,8.67-7.8,12.91-11.81,4.37-4.16,8.47-8.62,12.63-12.99,3.53-3.71,7.22-7.12,10.1-11.38.95-1.4,2.06-2.45,3.89-2.2,3.18.43.37,4.61-.63,5.87-.7.88-1.4,1.75-2.1,2.63-.67.83-2.06,2-2.41,2.99-.28.8.22,1.7-.22,2.63-.42.88-1.21,1.5-1.81,2.25-1.43,1.78-.96,4.11-1.86,6.12-1.13,2.51-2.99,4.74-4.49,7.05-3.18,4.91-4.82,10.91-6.9,16.35-2.41,6.3-4.91,12.58-7.22,18.91-.53,1.48-1.15,2.96-1.48,4.51-.33,1.51-.28,3.09-.62,4.59l-1.53,4.31v.05h-.02Z"/>
                <path class="cls-2" d="M195.24,69.19c-.65-.32-.52-.58-.6-.62-1.55-6.14-1.03-11,1.66-15.72l.03-.05c1.01-1.8,2.91-5.14,4.66-6.17.63-.37,2.26-.53,3.64-.35.45.05.77.13.96.2-.55,2.91-1.21,5.32-2.15,7.79-.25.67-.48,1.35-.72,2-.62,1.76-1.25,3.59-2.18,5.16l-.05.08-.03.08c-.37.96-.68,2.05-.18,2.88.27.45.72.73,1.26.8.37.05.8,0,1.3-.13h.02c2.78-.87,4.37-2.35,5.14-3.06.1-.08.18-.17.25-.23,1.43-1.25,2.94-2.58,4.42-3.99,1.83-1.75,2.96-3.74,4.06-5.67.82-1.41,1.65-2.89,2.74-4.23,1.4-1.68,2.83-3.43,4.31-5.06.15-.17.3-.33.45-.52.85-.96,1.73-1.96,2.79-2.33.47-.17.9-.22,1.31-.17.6.08,1.11.38,1.48.88.45.62.62,1.46.45,2.35-.6,3.19-3.33,6.69-5.51,9.48-.2.25-.38.5-.57.73l-.52.67c-2.18,2.83-4.44,5.74-7.2,7.7-2.91,2.06-6.15,5.26-9.63,5.89-1.03.18-2.33.98-3.59,1.35-1.3.37-2.66.57-3.66.72h-.05l-.05.02c-.9.23-2.88.3-4.31-.48l.03.02.04-.02Z"/>
                <path class="cls-2" d="M123.28,65.63c2.21-1.45,6.44-.7,9.05-.8,3.49-.12,7-.25,10.5-.43,3.46-.2,6.92-.53,10.36-.95,1.71-.22,3.41-.43,5.11-.67,1.36-.18,2.74-.12,4.71-.75l12.99-3.28c1.91-.47,2.93-.73,3.98-.96,1.43-.32,2.78-.98,4.19-1.35,1.13-.28,2.35-.28,2.78-1.51.27-.73.07-1.56-.18-2.28-.65-1.8-2.13-2.71-3.88-3.26-2.2-.68-4.14-2.06-6.35-2.66-4.89-1.3-10.56-.73-15.57-.87-5.12-.13-10.23-.3-15.35-.12-5.14.18-10.25.83-15.35,1.4-2.53.28-5.06.52-7.6.6-2.01.07-4.52-.03-6.34.98-1.65.93-3.06-.72-4.81.12-1.08.52-1.9,4.16-2.76,5.01-1.48,1.43-1.35,3.49-1.93,5.32-.67,2.11-1.9,4.01-3.09,5.86-2.69,4.11-5.12,8.38-7.64,12.61-1.43,2.41-2.86,4.84-4.28,7.27-.57.98-1.41,2.06-1.71,3.14-.07.27-.1.53-.12.8.08.15.17.3.22.48.05.17.15.33.18.5h0s0,.02.02.03c.05.05.1.1.13.12h0c.23.05.3.13.22.12h.03c.13.05.28.1.42.15.63.1,1.25.17,1.88.18-.1,0,.75-.03.91-.05.12,0,.23-.02.35-.03l.83-.33c1.01-.38,2.06-.63,3.08-1.01,1.18-.45,1.45-1.23,1.81-2.41.77-2.46,1.9-4.61,3.13-6.89,1.28-2.36,2.6-4.69,3.63-7.17.3-.73.77-2.46,1.5-2.84.63-.32,2.01-.12,2.64.13l12.44,2.68c1.88.52,3.79.78,5.72,1.05,4.06.57,8.13,1.01,12.21,1.6,8.12,1.18,16.02,2.4,24.24,2.63,8.2.22,16.37,1,24.55,1.41,3.91.2,7.82.22,11.71.32,3.79.08,7.69.5,11.46.03-.93-1.55-1.23-2.25-3.08-2.83-1.51-.48-3.09-.57-4.67-.7-3.53-.3-7.07-.52-10.61-.4-3.53.12-6.4-.02-9.93-.25-3.68-.23-7.37-.58-11.05-.9-14.11-1.23-28.13-2.83-42.15-4.61-.52,0-1.03-.07-1.55-.13-.78-.12-1.56-.28-2.3-.55-.8-.28-2.01-.47-2.71-.96-.5-.35-1.2-.5-1.56-1-.25-.35-.52-.8-.43-1.23,0-.1,0-.22.03-.32,0-.03,0-.05.03-.07l-.03.03h0ZM128.32,51.59c2.18-.33,4.33-.88,6.5-1.25,4.24-.75,8.62-.73,12.91-.78,4.34-.05,8.68-.22,13.02.03,2.3.13,4.51.48,6.74,1.01,2.03.48,4.06.63,5.46,2.2-4.29,1.81-9.12,2.99-13.64,4.13-4.79,1.2-9.66,1.7-14.56,2.26-5.09.58-10.16,1.18-15.25,1.75-4.99.57-10.01,1.41-15.04,1.2,1.08-2.38,2.25-4.59,3.64-6.82.6-.96,1.2-2,1.9-2.89.82-1.03,1.11-.37,2.36-.57,2.3.02,4.57.02,5.97-.25l-.02-.02h0Z"/>
                <path class="cls-2" d="M330.38,71.27c-3.01.22-6.02.47-9.03.75-6.19.58-12.48.91-18.53,2.31-2.63.6-5.29.95-7.95,1.35-1.35.22-2.88.28-4.14.78-1.18.45-2,1.23-3.29,1.36-.42.03-1.63.17-1.96-.15-.53-.5-.22-3.23-.1-3.89.53-2.99,1.93-6.07,3.01-8.92.91-2.41,1.9-4.71,3.19-6.94.58-1.01,1.55-2.2,1.78-3.36.27-1.31-1.08-1.96-.95-3.18.23-2.1,4.74-2.25,6.29-2.61,2.98-.68,5.96-1.36,8.95-2.05,6.2-1.4,12.43-2.88,18.68-4.08,1.31-.25,6.65-.45,6.74,1.61.07,1.9-6.94,2.55-8.4,2.84-3.48.72-6.97,1.41-10.46,2.13-1.75.35-3.49.7-5.22,1.06-1.56.32-3.29.38-4.54,1.38l-2.86,3.74c4.94.52,9.95-.47,14.89-.98,2.46-.25,4.96-.57,7.44-.63,2.4-.07,5.59-.07,7.87.67.23.55-.8,1.03-1.48,1.85-.82.96-2.31,1.01-3.58,1.16-2.94.33-5.87.63-8.82,1.1-3.41.55-6.82.96-10.25,1.41-1.63.22-3.26.45-4.89.73-1.33.25-3.23.33-4.39,1.03-1.55.93-2.41,4.28-2.94,5.89-.83,2.53,1.98,1.96,3.59,1.81,7.22-.65,14.44-1.33,21.66-2.06,4.04-.4,8.08-.77,12.09-1.35,1.86-.27,4.11-.95,5.99-.82,1.28.08,2,1.35,2.93,2.2,1.48,2.68-2.55,3.14-3.78,3.31l-7.52.55v-.03l-.02.03Z"/>
              </g>
            </g>
          </g>
        </g>
      </g>
    </g>
  </g>
</svg>