 

<?xml version="1.0" encoding="UTF-8"?>
<svg xmlns="http://www.w3.org/2000/svg" version="1.1" viewBox="0 0 360 144">
  <defs>
    <style>
      .cls-1 {
        fill: #00529c;
      }
    </style>
  </defs>
  <!-- Generator: Adobe Illustrator 28.7.1, SVG Export Plug-In . SVG Version: 1.2.0 Build 142)  -->
  <g>
    <g id="Layer_1">
      <g id="Layer_1-2" data-name="Layer_1">
        <g>
          <path class="cls-1" d="M56.97,110.99c-3.5,2.72-8.05,4.29-12.47,4.29-9.09,0-15.58-7.15-15.58-17.14v-44.15h-10.91v-7.41h10.91v-18.44h8.05v18.44h19.76v7.41h-19.76v44.15c0,5.71,3.64,9.73,8.05,9.73,3.12,0,5.97-1.16,7.79-2.86l4.16,5.97v.02h0Z"/>
          <path class="cls-1" d="M105.67,45.03v7.41c-15.2,0-25.97,9.87-25.97,23.77v37.53h-8.05V46.59h8.05v13.76c3.76-9.09,13.64-15.32,25.97-15.32Z"/>
          <path class="cls-1" d="M174.49,46.59v67.14h-8.05v-11.03c-3.64,7.41-12.21,12.6-22.09,12.6-14.8,0-25.19-10.65-25.19-25.59v-43.11h8.05v42.07c0,11.29,7.53,19.22,18.18,19.22,11.81,0,21.04-8.19,21.04-18.56v-42.73h8.06Z"/>
          <path class="cls-1" d="M280.39,64.2c2.86-13.36-.71-20.96-9.2-20.96-12.2,0-22.97,16.36-31,36.61l3.3-15.51c3.02-13.78-.43-21.1-8.03-21.1-11.78,0-22.54,15.79-30.59,35.6l6.91-32.18h-16.6c2.98,3.5,4.42,11.71,2.38,20.98l-4.46,21.1c-2.45,11.19-3.73,18.1-7.76,24.69v.29h15.79v-.29c-1.44-5.74-1.01-11.05.71-18.95l.87-4.16c11.35-26.84,19.81-38.91,27.13-38.91,4.74,0,6.04,5.17,4.3,12.93l-5.45,24.84c-2.29,11.19-3.59,17.66-7.46,24.25v.29h15.65v-.29c-1.58-6.18-1.01-10.77,1.01-20.82l.43-1.87c11.49-27.27,19.95-39.33,27.57-39.33,5.03,0,6.04,5.31,4.46,12.93l-10.93,49.46,14.28-.07c-2.67-2.17-2.19-9.8-.35-18.11l7.03-31.44.02.03h0Z"/>
          <path class="cls-1" d="M289.45,91.04c0-23.98,18.1-47.81,38.91-47.81,6.32,0,13.64,2.45,13.64,9.91,0,8.9-9.77,17.23-38.76,17.23-1.58,5.17-2.45,10.77-2.45,16.66,0,15.65,6.04,20.82,13.78,20.82,6.45,0,12.49-3.73,17.52-11.78l1.01.71c-4.88,11.92-13.78,19.1-24.12,19.1-12.06,0-19.52-9.47-19.52-24.84l-.02.02v-.02ZM303.8,68.8c25.26-3.16,29.29-11.35,29.29-16.79,0-4.03-2.01-6.18-6.18-6.18-9.2,0-18.51,9.33-23.11,22.97Z"/>
        </g>
      </g>
    </g>
  </g>
</svg>